HIERARCHY
ROOT SpineBase
{
  OFFSET 0.000000 0.000000 0.000000
  CHANNELS 6 Xposition Yposition Zposition Zrotation Xrotation Yrotation
  JOINT SpineMid
  {
    OFFSET 0.000000 29.622151 0.000000
    CHANNELS 3 Zrotation Xrotation Yrotation
    JOINT SpineShoulder
    {
      OFFSET 0.191414 22.024205 -0.829632
      CHANNELS 3 Zrotation Xrotation Yrotation
      JOINT Neck
      {
        OFFSET 0.104787 7.299963 -0.598261
        CHANNELS 3 Zrotation Xrotation Yrotation
        JOINT Head
        {
          OFFSET -3.752538 13.514084 -1.711380
          CHANNELS 3 Zrotation Xrotation Yrotation
          End Site
          {
            OFFSET 0 0 0
          }
        }
      }
      JOINT ShoulderLeft
      {
        OFFSET -16.432969 -4.538451 5.229664
        CHANNELS 3 Zrotation Xrotation Yrotation
        JOINT ElbowLeft
        {
          OFFSET -2.990710 -25.763306 0.363381
          CHANNELS 3 Zrotation Xrotation Yrotation
          JOINT WristLeft
          {
            OFFSET -1.169169 -21.238260 -5.990271
            CHANNELS 3 Zrotation Xrotation Yrotation
            JOINT HandLeft
            {
              OFFSET 0.362800 -2.506473 0.415219
              CHANNELS 3 Zrotation Xrotation Yrotation
              JOINT HandTipLeft
              {
                OFFSET -0.749510 -5.802068 -0.557039
                CHANNELS 3 Zrotation Xrotation Yrotation
                End Site
                {
                  OFFSET 0 0 0
                }
              }
              JOINT ThumbLeft
              {
                OFFSET -3.438497 1.475507 -1.763766
                CHANNELS 3 Zrotation Xrotation Yrotation
                End Site
                {
                  OFFSET 0 0 0
                }
              }
            }
          }
        }
      }
      JOINT ShoulderRight
      {
        OFFSET 13.905676 -3.359046 -7.675911
        CHANNELS 3 Zrotation Xrotation Yrotation
        JOINT ElbowRight
        {
          OFFSET 5.181742 -29.160106 -0.994147
          CHANNELS 3 Zrotation Xrotation Yrotation
          JOINT WristRight
          {
            OFFSET 1.602633 -21.661744 -3.205500
            CHANNELS 3 Zrotation Xrotation Yrotation
            JOINT HandRight
            {
              OFFSET 2.555463 -5.053560 -2.247302
              CHANNELS 3 Zrotation Xrotation Yrotation
              JOINT HandTipRight
              {
                OFFSET 1.689653 -6.769986 -2.371013
                CHANNELS 3 Zrotation Xrotation Yrotation
                End Site
                {
                  OFFSET 0 0 0
                }
              }
              JOINT ThumbRight
              {
                OFFSET 3.600471 0.972889 -3.032863
                CHANNELS 3 Zrotation Xrotation Yrotation
                End Site
                {
                  OFFSET 0 0 0
                }
              }
            }
          }
        }
      }
    }
  }
  JOINT HipLeft
  {
    OFFSET -6.133322 -0.251568 -0.937424
    CHANNELS 3 Zrotation Xrotation Yrotation
    JOINT KneeLeft
    {
      OFFSET -0.919565 -29.634390 6.159619
      CHANNELS 3 Zrotation Xrotation Yrotation
      JOINT AnkleLeft
      {
        OFFSET 2.403703 -31.195241 4.293067
        CHANNELS 3 Zrotation Xrotation Yrotation
        JOINT FootLeft
        {
          OFFSET 1.613859 -7.227926 -6.942757
          CHANNELS 3 Zrotation Xrotation Yrotation
          End Site
          {
            OFFSET 0 0 0
          }
        }
      }
    }
  }
  JOINT HipRight
  {
    OFFSET 6.693431 1.802975 -5.755139
    CHANNELS 3 Zrotation Xrotation Yrotation
    JOINT KneeRight
    {
      OFFSET 21.364373 -25.937396 -8.143653
      CHANNELS 3 Zrotation Xrotation Yrotation
      JOINT AnkleRight
      {
        OFFSET 2.649179 -28.629400 -5.242220
        CHANNELS 3 Zrotation Xrotation Yrotation
        JOINT FootRight
        {
          OFFSET -7.325975 1.469362 -9.055899
          CHANNELS 3 Zrotation Xrotation Yrotation
          End Site
          {
            OFFSET 0 0 0
          }
        }
      }
    }
  }
}
MOTION
Frames: 7
Frame Time: 0.033333
-25.453512 72.444357 357.165869 6.094196 -2.563280 25.105506 -1.265500 -0.971004 -24.651742 -0.625493 -0.390767 0.251180 6.650609 0.935396 -0.305955 0.000000 0.000000 0.000000 -2.234388 -38.330018 5.724667 57.298978 67.586926 -59.684660 5.244298 22.815800 18.208771 5.081519 -21.610681 -12.176824 0.000000 0.000000 0.000000 0.000000 0.000000 0.000000 47.975943 4.217908 -5.948635 -97.717987 15.433821 13.808354 -66.393585 -31.038277 -35.732859 49.998839 18.419253 -11.230254 0.000000 0.000000 0.000000 0.000000 0.000000 0.000000 -3.055901 5.253696 -24.699676 -3.157004 -4.777678 -0.888999 -24.341405 22.246081 31.869178 0.000000 0.000000 0.000000 -42.452975 0.839690 -30.442253 26.083945 -0.149941 1.528958 45.779792 -16.830179 12.743781 0.000000 0.000000 0.000000
-25.734921 72.404482 357.338707 5.367929 -3.249696 22.218783 -1.353194 -0.817448 -21.784355 -0.579469 -0.347029 0.212348 5.455422 -0.714539 -0.909043 0.000000 0.000000 0.000000 0.404954 -36.437758 6.072361 50.929053 67.267191 -54.552247 0.445577 29.493825 17.256754 9.252527 -34.255051 -5.254154 0.000000 0.000000 0.000000 0.000000 0.000000 0.000000 42.599881 -7.713311 -2.723157 -85.291041 20.540177 23.679658 -75.885217 -31.922106 -41.056562 41.767950 20.127343 -6.718952 0.000000 0.000000 0.000000 0.000000 0.000000 0.000000 -2.177304 5.056289 -21.757970 -3.094111 -4.412206 -0.877179 -22.274448 18.662776 28.601908 0.000000 0.000000 0.000000 -41.342196 -0.448702 -27.451038 26.480036 -0.546685 1.017823 45.211464 -18.540913 11.053413 0.000000 0.000000 0.000000
-25.965925 72.367360 357.602875 4.457395 -4.063650 18.925239 -1.615226 -0.759002 -18.518810 -0.609218 -0.414279 0.162843 4.141188 -2.088991 -1.659503 0.000000 0.000000 0.000000 1.922046 -35.942781 6.196824 49.032473 67.366766 -52.916210 -0.743599 30.528837 16.728718 14.526763 -36.657567 -0.562403 0.000000 0.000000 0.000000 0.000000 0.000000 0.000000 41.016716 -12.791984 -2.060782 -71.608824 16.655616 21.547408 -71.639399 -33.729533 -28.218970 47.214398 23.984598 -8.964843 0.000000 0.000000 0.000000 0.000000 0.000000 0.000000 -1.282297 5.124242 -18.461576 -2.747830 -4.032089 -0.806312 -20.012331 13.191671 24.659299 0.000000 0.000000 0.000000 -40.037328 -1.667927 -23.744392 26.848527 -1.251956 0.344547 44.223707 -21.232533 7.711042 0.000000 0.000000 0.000000
-26.182516 72.341157 357.940435 3.417319 -4.919547 15.796999 -1.807993 -0.706782 -15.437163 -0.581265 -0.464425 0.111123 2.390979 -2.785091 -2.336316 0.000000 0.000000 0.000000 1.144062 -35.685562 5.674653 60.060855 67.577268 -62.254649 0.762376 25.488949 17.717924 11.693483 -34.030753 -3.190202 0.000000 0.000000 0.000000 0.000000 0.000000 0.000000 39.688079 -15.986811 -1.956362 -66.167540 14.609237 22.006160 -71.540641 -32.861004 -18.064041 58.348196 26.495021 -12.932442 0.000000 0.000000 0.000000 0.000000 0.000000 0.000000 -0.325362 5.450646 -15.381155 -2.329817 -3.713425 -0.719516 -17.709305 6.079778 20.282114 0.000000 0.000000 0.000000 -38.505136 -2.570956 -19.982985 27.021492 -2.095403 -0.327988 42.339024 -24.443296 2.644975 0.000000 0.000000 0.000000
-26.358102 72.387414 358.277714 2.336553 -5.718376 13.360273 -1.909153 -0.658343 -13.065038 -0.481867 -0.464772 0.061706 1.001267 -3.091362 -2.846155 0.000000 0.000000 0.000000 -1.163846 -35.852114 4.821601 71.635990 66.832167 -71.051783 4.659391 18.406457 19.537134 2.324614 -31.051679 -9.121933 0.000000 0.000000 0.000000 0.000000 0.000000 0.000000 37.014016 -19.093268 -2.028224 -62.472951 14.909356 23.843063 -69.568291 -31.618680 -9.754145 63.788828 27.051073 -13.762192 0.000000 0.000000 0.000000 0.000000 0.000000 0.000000 0.587624 6.046323 -13.051210 -1.791610 -3.631349 -0.610699 -15.743623 -1.675654 15.961511 0.000000 0.000000 0.000000 -36.978022 -3.086877 -16.965256 26.905299 -2.769358 -0.778651 39.468250 -27.431427 -3.836229 0.000000 0.000000 0.000000
-26.465978 72.457723 358.594133 1.056162 -6.485674 11.325231 -2.048401 -0.627881 -11.126851 -0.362675 -0.419097 0.000827 -1.010810 -3.513205 -3.453880 0.000000 0.000000 0.000000 -4.863848 -36.304762 3.562801 82.238745 65.171734 -77.637064 10.932489 7.310488 22.621603 -5.934033 -20.561803 -14.537024 0.000000 0.000000 0.000000 0.000000 0.000000 0.000000 33.127513 -21.111943 -2.515119 -58.205561 14.595048 24.878171 -62.184502 -23.837617 17.346535 63.796864 7.041512 -17.058338 0.000000 0.000000 0.000000 0.000000 0.000000 0.000000 1.658359 6.795375 -11.181254 -1.208373 -3.712814 -0.490611 -15.153861 -8.285981 13.164292 0.000000 0.000000 0.000000 -35.532322 -3.480534 -14.549066 26.774037 -3.005224 -1.038635 36.013708 -29.688336 -10.726906 0.000000 0.000000 0.000000
-26.515172 72.528791 358.852494 -0.259896 -7.081611 9.561820 -2.011912 -0.577000 -9.484874 -0.224991 -0.348178 -0.054803 -4.118127 -3.713931 -4.028743 0.000000 0.000000 0.000000 -10.009717 -36.816123 1.897763 90.555161 63.055306 -80.939570 27.467051 -13.639100 32.855327 -14.947209 6.729195 -19.036721 0.000000 0.000000 0.000000 0.000000 0.000000 0.000000 27.040184 -22.796013 -3.272637 -51.725637 16.553660 25.341614 -49.827553 -4.746960 43.747478 49.225397 -14.914421 -19.268305 0.000000 0.000000 0.000000 0.000000 0.000000 0.000000 2.684534 7.504343 -9.612069 -0.649194 -3.949304 -0.375476 -14.209423 -11.894906 10.714980 0.000000 0.000000 0.000000 -34.383305 -4.005930 -12.754554 26.909880 -2.637594 -1.139587 32.053337 -31.367428 -17.829727 0.000000 0.000000 0.000000
